<svg width="90" height="90" viewBox="0 0 90 90" fill="none" xmlns="http://www.w3.org/2000/svg">
<path d="M53.5916 6.34685C61.9041 -1.82506 75.4533 -1.82506 83.7657 6.34685C92.0781 14.5188 92.0781 27.839 83.7657 36.0109C75.4533 44.1828 44.7805 44.6731 44.7805 44.6731C44.7805 44.6731 45.1961 14.5188 53.5916 6.34685Z" fill="url(#paint0_linear_700_5299)"/>
<path d="M6.17378 36.1439C-2.05793 27.8919 -2.05793 14.4411 6.17378 6.18902C14.4055 -2.06301 27.8232 -2.06301 36.0549 6.18902C44.2866 14.441 44.7805 44.891 44.7805 44.891C44.7805 44.891 14.4055 44.4784 6.17378 36.1439Z" fill="url(#paint1_linear_700_5299)"/>
<path d="M83.7657 53.8561C92.0781 62.1081 92.0781 75.5589 83.7657 83.811C75.4533 92.063 61.9041 92.063 53.5916 83.811C45.2792 75.5589 44.7805 45.1089 44.7805 45.1089C44.7805 45.1089 75.4533 45.5215 83.7657 53.8561Z" fill="url(#paint2_linear_700_5299)"/>
<path d="M36.0549 83.811C27.8232 92.063 14.4055 92.063 6.17379 83.811C-2.05792 75.5589 -2.05792 62.1081 6.17378 53.8561C14.4055 45.6041 44.7805 45.1089 44.7805 45.1089C44.7805 45.1089 44.3689 75.5589 36.0549 83.811Z" fill="url(#paint3_linear_700_5299)"/>
<path fill-rule="evenodd" clip-rule="evenodd" d="M43.4873 59.0116L24.5658 69.3125C21.9209 70.7263 18.9708 67.8986 20.395 65.1719L30.7712 46.3879C31.2799 45.479 31.2799 44.3681 30.7712 43.4592L20.395 24.6753C18.9708 22.0495 21.8192 19.1208 24.5658 20.5347L43.4873 30.8356C44.4028 31.3405 45.5218 31.3405 46.4374 30.8356L65.3588 20.5347C68.0038 19.1208 70.9539 21.9485 69.5297 24.6753L59.1534 43.4592C58.6448 44.3681 58.6448 45.479 59.1534 46.3879L69.5297 65.1719C70.9539 67.7977 68.1055 70.7263 65.3588 69.3125L46.4374 59.0116C45.5218 58.5066 44.4028 58.5066 43.4873 59.0116ZM68.1687 23.9017C68.1687 25.015 67.2596 25.9175 66.1382 25.9175C65.0167 25.9175 64.1076 25.015 64.1076 23.9017C64.1076 22.7884 65.0167 21.8859 66.1382 21.8859C67.2596 21.8859 68.1687 22.7884 68.1687 23.9017ZM66.1382 67.9614C67.2596 67.9614 68.1687 67.0589 68.1687 65.9456C68.1687 64.8323 67.2596 63.9298 66.1382 63.9298C65.0167 63.9298 64.1076 64.8323 64.1076 65.9456C64.1076 67.0589 65.0167 67.9614 66.1382 67.9614ZM25.8172 23.9017C25.8172 25.015 24.9081 25.9175 23.7866 25.9175C22.6652 25.9175 21.7561 25.015 21.7561 23.9017C21.7561 22.7884 22.6652 21.8859 23.7866 21.8859C24.9081 21.8859 25.8172 22.7884 25.8172 23.9017ZM23.7866 67.9614C24.9081 67.9614 25.8172 67.0589 25.8172 65.9456C25.8172 64.8323 24.9081 63.9298 23.7866 63.9298C22.6652 63.9298 21.7561 64.8323 21.7561 65.9456C21.7561 67.0589 22.6652 67.9614 23.7866 67.9614Z" fill="white"/>
<defs>
<linearGradient id="paint0_linear_700_5299" x1="83.4989" y1="5.38878" x2="-1.03236" y2="89.0994" gradientUnits="userSpaceOnUse">
<stop stop-color="#1660FF"/>
<stop offset="1" stop-color="#3575FF"/>
</linearGradient>
<linearGradient id="paint1_linear_700_5299" x1="83.4989" y1="5.38878" x2="-1.03236" y2="89.0994" gradientUnits="userSpaceOnUse">
<stop stop-color="#1660FF"/>
<stop offset="1" stop-color="#3575FF"/>
</linearGradient>
<linearGradient id="paint2_linear_700_5299" x1="83.4989" y1="5.38878" x2="-1.03236" y2="89.0994" gradientUnits="userSpaceOnUse">
<stop stop-color="#1660FF"/>
<stop offset="1" stop-color="#3575FF"/>
</linearGradient>
<linearGradient id="paint3_linear_700_5299" x1="83.4989" y1="5.38878" x2="-1.03236" y2="89.0994" gradientUnits="userSpaceOnUse">
<stop stop-color="#1660FF"/>
<stop offset="1" stop-color="#3575FF"/>
</linearGradient>
</defs>
</svg>
