<svg width="32" height="32" viewBox="0 0 32 32" fill="none" xmlns="http://www.w3.org/2000/svg">
<g id="Group 1000002007">
<g id="Group 1000001995">
<path id="Subtract" fill-rule="evenodd" clip-rule="evenodd" d="M5.16699 14.9579C5.16699 10.2405 10.0172 6.41626 16.0003 6.41626C21.9835 6.41626 26.8337 10.2405 26.8337 14.9579C26.8337 19.6754 21.9835 23.4996 16.0003 23.4996C15.3437 23.4996 14.7006 23.4537 14.0762 23.3652C13.4511 23.8057 9.83949 26.3426 9.49866 26.3902C9.49866 26.3902 9.35887 26.4446 9.24001 26.3746C9.12116 26.3046 9.14272 26.1211 9.14272 26.1211C9.17856 25.8768 10.079 22.7674 10.2449 22.1951C7.1947 20.684 5.16699 18.0078 5.16699 14.9579ZM9.38579 17.3427C9.38579 17.6719 9.6661 17.9396 10.0108 17.9396C10.3555 17.9396 10.6358 17.6719 10.6358 17.3427V13.6297H11.611C11.9491 13.6297 12.2243 13.3551 12.2243 13.0177C12.2243 12.6803 11.9492 12.4057 11.611 12.4057H8.41058C8.07246 12.4057 7.79725 12.6803 7.79725 13.0177C7.79725 13.3551 8.07235 13.6297 8.41058 13.6297H9.38579V17.3427ZM14.9711 17.6554C15.0312 17.8256 15.2306 17.9315 15.4912 17.9315C15.6283 17.9316 15.7638 17.9022 15.8885 17.8453C16.0608 17.7661 16.2264 17.5474 16.0362 16.9566L14.5418 13.0234C14.4363 12.7235 14.1164 12.415 13.7082 12.4058C13.3011 12.4151 12.9812 12.7235 12.8759 13.0227L11.3809 16.9577C11.1911 17.5472 11.3567 17.7657 11.529 17.8452C11.6537 17.9022 11.7892 17.9316 11.9263 17.9315C12.1869 17.9315 12.3862 17.8257 12.4461 17.6559L12.7558 16.8451L14.6616 16.8452L14.9711 17.6554ZM13.7087 13.9647L14.333 15.7381H13.0844L13.7087 13.9647ZM16.4431 17.2755C16.4431 17.5914 16.7117 17.8485 17.042 17.8485H19.0472C19.3776 17.8485 19.6462 17.5914 19.6462 17.2755C19.6462 16.9597 19.3776 16.7026 19.0472 16.7026H17.7191V13.0307C17.7191 12.6861 17.4329 12.4057 17.0811 12.4057C16.7293 12.4057 16.4431 12.6861 16.4431 13.0307V17.2755ZM19.8893 17.3065C19.8893 17.6512 20.1696 17.9315 20.5143 17.9315C20.6801 17.9313 20.839 17.8653 20.9562 17.7481C21.0734 17.6309 21.1393 17.4719 21.1395 17.3062V15.9425L21.3564 15.7256L22.8221 17.6677C22.8802 17.7452 22.9556 17.8081 23.0423 17.8512C23.129 17.8944 23.2246 17.9166 23.3214 17.9162C23.4572 17.9165 23.5893 17.8722 23.6974 17.79C23.763 17.7408 23.8183 17.679 23.8599 17.6082C23.9015 17.5375 23.9287 17.4592 23.9399 17.3778C23.9515 17.2965 23.9469 17.2138 23.9263 17.1343C23.9057 17.0548 23.8695 16.9802 23.8199 16.9148L22.2814 14.8767L23.7057 13.4526C23.8036 13.3546 23.8527 13.2195 23.8436 13.0721C23.8346 12.926 23.7693 12.7852 23.6599 12.6759C23.5425 12.5586 23.3858 12.4913 23.2297 12.4913C23.096 12.4913 22.9728 12.5406 22.8831 12.6303L21.1393 14.3741V13.0307C21.1393 12.6861 20.859 12.4057 20.5143 12.4057C20.1696 12.4057 19.8893 12.6861 19.8893 13.0307V17.3065Z" fill="#3D4259"/>
</g>
</g>
</svg>
